
      <svg data-logo="logo" xmlns="http://www.w3.org/2000/svg" viewBox="0 0 136 43">
        <g id="logogram" transform="translate(0, 1) rotate(0)"><path d="M20 0.889954C31.0457 0.889954 40 9.84426 40 20.89V34.89C40 38.2037 37.3137 40.89 34 40.89H21V32.1161C21 30.114 21.1224 28.0404 22.1725 26.3357C23.6625 23.9168 26.1515 22.1871 29.0764 21.7093L29.4595 21.6467C29.7828 21.5358 30 21.2318 30 20.89C30 20.5481 29.7828 20.2441 29.4595 20.1332L29.0764 20.0706C24.836 19.378 21.512 16.054 20.8193 11.8135L20.7568 11.4305C20.6459 11.1071 20.3418 10.89 20 10.89C19.6582 10.89 19.3541 11.1071 19.2432 11.4305L19.1807 11.8135C18.7029 14.7385 16.9731 17.2274 14.5542 18.7175C12.8496 19.7676 10.7759 19.89 8.77382 19.89H0.0245667C0.545597 9.30884 9.28963 0.889954 20 0.889954Z" fill="#F06225"/><path d="M0 21.89H8.77382C10.7759 21.89 12.8495 22.0123 14.5541 23.0624C15.8852 23.8823 17.0076 25.0047 17.8276 26.3358C18.8776 28.0405 19 30.114 19 32.1161V40.89H6C2.68629 40.89 0 38.2037 0 34.89V21.89Z" fill="#F06225"/><path d="M40 2.88995C40 3.99452 39.1046 4.88995 38 4.88995C36.8954 4.88995 36 3.99452 36 2.88995C36 1.78538 36.8954 0.889954 38 0.889954C39.1046 0.889954 40 1.78538 40 2.88995Z" fill="#F06225"/></g>
        <g id="logotype" transform="translate(46, 8)"><path fill="#111111" d="M22.58 27L15.76 27L6.84 1.54L12.63 1.54L16.70 13.82Q17.43 16.15 18.19 18.94Q18.94 21.74 19.77 25.05L19.77 25.05L18.65 25.05Q19.47 21.70 20.18 18.93Q20.90 16.15 21.60 13.82L21.60 13.82L25.53 1.54L31.29 1.54L22.58 27ZM37.17 27L32.04 27L32.04 7.89L37.17 7.89L37.17 27ZM34.61 5.40L34.61 5.40Q33.44 5.40 32.62 4.63Q31.80 3.86 31.80 2.77L31.80 2.77Q31.80 1.67 32.62 0.90Q33.44 0.13 34.61 0.13L34.61 0.13Q35.77 0.13 36.60 0.90Q37.43 1.66 37.43 2.77L37.43 2.77Q37.43 3.86 36.60 4.63Q35.77 5.40 34.61 5.40ZM49.95 27.32L49.95 27.32Q48.40 27.32 47.32 26.79Q46.24 26.27 45.57 25.49Q44.89 24.71 44.53 23.94L44.53 23.94L44.29 23.94L44.29 27L39.25 27L39.25 1.54L44.38 1.54L44.38 11.11L44.53 11.11Q44.89 10.35 45.55 9.55Q46.21 8.75 47.28 8.20Q48.36 7.65 49.99 7.65L49.99 7.65Q52.10 7.65 53.86 8.75Q55.62 9.84 56.68 12.03Q57.73 14.22 57.73 17.48L57.73 17.48Q57.73 20.66 56.70 22.86Q55.68 25.05 53.92 26.19Q52.16 27.32 49.95 27.32ZM48.38 23.21L48.38 23.21Q49.71 23.21 50.63 22.47Q51.54 21.74 52.01 20.44Q52.48 19.14 52.48 17.46L52.48 17.46Q52.48 15.79 52.01 14.51Q51.54 13.23 50.63 12.49Q49.73 11.76 48.38 11.76L48.38 11.76Q47.06 11.76 46.14 12.47Q45.22 13.17 44.74 14.45Q44.26 15.72 44.26 17.46L44.26 17.46Q44.26 19.19 44.75 20.48Q45.23 21.77 46.16 22.49Q47.08 23.21 48.38 23.21ZM67.67 27.38L67.67 27.38Q64.75 27.38 62.63 26.18Q60.51 24.98 59.37 22.78Q58.24 20.57 58.24 17.55L58.24 17.55Q58.24 14.59 59.37 12.37Q60.49 10.15 62.56 8.90Q64.63 7.65 67.41 7.65L67.41 7.65Q69.29 7.65 70.92 8.25Q72.54 8.85 73.77 10.06Q75.00 11.26 75.69 13.07Q76.39 14.88 76.39 17.34L76.39 17.34L76.39 18.78L60.34 18.78L60.34 15.57L73.87 15.57L71.48 16.42Q71.48 14.93 71.03 13.83Q70.58 12.73 69.68 12.12Q68.78 11.52 67.45 11.52L67.45 11.52Q66.13 11.52 65.20 12.13Q64.27 12.75 63.79 13.80Q63.31 14.85 63.31 16.20L63.31 16.20L63.31 18.47Q63.31 20.13 63.87 21.26Q64.42 22.39 65.42 22.95Q66.42 23.51 67.76 23.51L67.76 23.51Q68.66 23.51 69.40 23.26Q70.13 23.00 70.65 22.50Q71.17 21.99 71.45 21.26L71.45 21.26L76.10 22.13Q75.63 23.70 74.49 24.89Q73.34 26.08 71.63 26.73Q69.91 27.38 67.67 27.38ZM82.74 27L77.62 27L77.62 7.89L82.57 7.89L82.57 11.23L82.78 11.23Q83.31 9.45 84.55 8.54Q85.78 7.64 87.39 7.64L87.39 7.64Q87.78 7.64 88.24 7.68Q88.69 7.72 89.05 7.81L89.05 7.81L89.05 12.39Q88.71 12.27 88.06 12.20Q87.41 12.13 86.83 12.13L86.83 12.13Q85.66 12.13 84.72 12.64Q83.78 13.14 83.26 14.04Q82.74 14.93 82.74 16.13L82.74 16.13L82.74 27Z"/></g>
        
      </svg>
    